# xmcd
#
# Track frame offsets:
#	150
#	9983
#	22862
#	40828
#	57218
#	69400
#	84064
#	97138
#	113959
#	127834
#	142829
#	156840
#	175254
#	188378
#	199415
#	209215
#
# Disc length: 2873 seconds
#
# Revision: 0
# Processed by: cddbd v1.5.1PL0 Copyright (c) Steve Scherf et al.
# Submitted via: dBpowerAMP V4.0
#
DISCID=cd0b3710
DTITLE=Tony Portlock - A Long Time Coming
DYEAR=1900
DGENRE=Blues
TTITLE0=Grandfather's Clock
TTITLE1=Blues In A Bottle
TTITLE2=Peggy Gordon
TTITLE3=Keep On Trucking
TTITLE4=El Paso Waltz
TTITLE5=Take This Hammer
TTITLE6=One Too Many Mornings
TTITLE7=Just A Closer Walk With Thee
TTITLE8=My Father's Hat
TTITLE9=She Begs She Mor
TTITLE10=Lord Franklin
TTITLE11=Alberta
TTITLE12=Blues In D
TTITLE13=Three Drunken Maidens
TTITLE14=Gimme That Shaky Puddin
TTITLE15=Take A Look At That Babe
EXTD=
EXTT0=
EXTT1=
EXTT2=
EXTT3=
EXTT4=
EXTT5=
EXTT6=
EXTT7=
EXTT8=
EXTT9=
EXTT10=
EXTT11=
EXTT12=
EXTT13=
EXTT14=
EXTT15=
PLAYORDER=
